<?xml version="1.0" standalone="no"?>
<!DOCTYPE svg PUBLIC "-//W3C//DTD SVG 20010904//EN"
 "http://www.w3.org/TR/2001/REC-SVG-20010904/DTD/svg10.dtd">
<svg version="1.0" xmlns="http://www.w3.org/2000/svg"
 width="200" height="200" viewBox="0 0 609.000000 357.000000" 
 preserveAspectRatio="xMidYMid meet">

<g transform="translate(0.000000,357.000000) scale(0.100000,-0.100000)"
fill="#fff" stroke="none">
<path d="M4330 2484 l0 -916 38 23 c71 42 357 232 440 291 l82 59 0 730 0 729
-280 0 -280 0 0 -916z"/>
<path d="M5445 2709 c11 -13 55 -63 99 -112 69 -77 77 -89 65 -104 -8 -9 -75
-69 -149 -132 -705 -608 -1295 -971 -2090 -1286 -631 -250 -1157 -392 -1968
-530 -465 -80 -813 -124 -1092 -138 -30 -2 91 -4 270 -5 517 -3 786 13 1220
74 805 113 1546 313 2220 601 327 139 728 342 1010 511 254 152 590 389 773
545 44 37 82 67 86 67 4 0 48 -46 97 -101 48 -56 90 -97 92 -91 3 9 -14 155
-56 504 -5 37 -10 69 -13 71 -2 2 -123 34 -269 70 -146 37 -276 70 -290 74
l-25 6 20 -24z"/>
<path d="M3520 1930 c0 -418 3 -760 6 -760 13 0 262 114 407 186 l147 74 0
630 0 630 -280 0 -280 0 0 -760z"/>
<path d="M2700 1569 l0 -700 23 7 c145 45 286 92 397 133 l135 49 3 606 2 606
-280 0 -280 0 0 -701z"/>
<path d="M1890 1111 l0 -449 93 20 c50 11 175 41 277 67 l185 46 3 383 2 382
-280 0 -280 0 0 -449z"/>
<path d="M1077 853 c-4 -3 -7 -80 -7 -171 l0 -164 43 7 c23 4 103 17 177 30
74 13 183 32 243 41 l107 17 0 124 0 123 -278 0 c-153 0 -282 -3 -285 -7z"/>
</g>
</svg>
